<?xml version="1.0" encoding="UTF-8" standalone="no"?>
<!-- Created with Inkscape (http://www.inkscape.org/) -->

<svg
   xmlns:dc="http://purl.org/dc/elements/1.1/"
   xmlns:cc="http://creativecommons.org/ns#"
   xmlns:rdf="http://www.w3.org/1999/02/22-rdf-syntax-ns#"
   xmlns:svg="http://www.w3.org/2000/svg"
   xmlns="http://www.w3.org/2000/svg"
   xmlns:inkscape="http://www.inkscape.org/namespaces/inkscape"
   version="1.1"
   width="242.5"
   height="242.5"
   id="svg2"
   xml:space="preserve"><metadata
     id="metadata8"><rdf:RDF><cc:Work
         rdf:about=""><dc:format>image/svg+xml</dc:format><dc:type
           rdf:resource="http://purl.org/dc/dcmitype/StillImage" /></cc:Work></rdf:RDF></metadata><defs
     id="defs6" /><g
     transform="matrix(1.25,0,0,-1.25,0,242.5)"
     id="g10"><g
       transform="scale(0.1,0.1)"
       id="g12"><path
         d="m 2.59766,5.66797 1927.56004,0 0,1927.56003 -1927.56004,0 0,-1927.56003 z"
         inkscape:connector-curvature="0"
         id="path14"
         style="fill:#ffffff;fill-opacity:1;fill-rule:evenodd;stroke:none" /><path
         d="m 1568.48,433.586 c 0,0 0,-1.184 0,233.32 l -96.28,0 c 0,-234.504 0,-233.32 0,-233.32 l 96.28,0"
         inkscape:connector-curvature="0"
         id="path16"
         style="fill:#231f20;fill-opacity:1;fill-rule:evenodd;stroke:none" /><path
         d="m 1058.71,530.457 0,132.906 -93.323,0 0,-101.597 c 0,-29.536 -1.184,-37.805 -2.953,-45.485 -6.5,-21.265 -28.946,-30.715 -51.985,-30.715 -31.894,0 -46.66,12.403 -52.566,31.895 -1.774,6.5 -2.363,13.586 -2.953,20.676 -0.594,7.676 0,15.949 0,24.808 l 0,100.418 -94.512,0 0,-133.492 c 0,-30.133 10.043,-52.574 26.582,-67.933 28.352,-27.762 76.199,-36.032 120.496,-36.032 53.754,0 95.104,7.68 124.634,36.621 15.36,14.77 26.58,34.262 26.58,67.93"
         inkscape:connector-curvature="0"
         id="path18"
         style="fill:#231f20;fill-opacity:1;fill-rule:evenodd;stroke:none" /><path
         d="m 600.34,546.996 c -2.953,0.59 -8.27,1.184 -14.172,1.184 l -106.324,0 c -5.321,0 -11.227,-0.594 -14.18,-1.184 1.77,1.774 5.316,5.317 8.859,10.043 l 47.848,79.152 c 6.496,10.633 9.449,17.719 10.633,20.672 1.18,-2.953 4.133,-10.039 10.629,-21.261 l 49.027,-79.747 c 2.363,-3.542 5.91,-7.085 7.68,-8.859 z m 178.387,-113.41 -212.645,318.969 -119.32,0 31.304,-37.211 c 0.594,-0.59 1.778,-1.18 2.957,-1.774 -1.179,-0.59 -2.363,-1.179 -2.957,-1.769 l -185.472,-278.215 107.504,0 28.945,47.844 c 1.18,2.363 1.77,4.726 1.77,5.91 1.183,0 4.136,-1.184 7.089,-1.184 l 191.977,0 c 2.953,0 5.312,0.59 6.492,1.184 0,-1.184 0,-2.957 1.184,-4.727 l 30.125,-49.027 111.047,0"
         inkscape:connector-curvature="0"
         id="path20"
         style="fill:#231f20;fill-opacity:1;fill-rule:evenodd;stroke:none" /><path
         d="m 1446.21,553.492 c 0,25.992 -10.64,56.117 -43.71,98.059 l -79.75,101.004 -111.04,0 63.2,-70.879 c 10.63,-11.817 24.22,-22.449 24.22,-22.449 -15.36,8.863 -34.85,12.406 -50.21,12.406 -36.62,0 -73.84,-7.68 -106.92,-25.992 -35.44,-19.489 -59.07,-51.977 -59.07,-95.102 0,-33.078 14.77,-58.476 33.67,-77.969 42.53,-42.527 119.91,-46.664 148.27,-46.664 41.93,0 107.5,9.449 144.72,43.121 21.85,20.082 36.62,47.844 36.62,84.465 z m -92.15,-2.953 c 0,-24.215 -15.95,-42.527 -36.03,-52.57 -16.54,-8.86 -36.03,-11.223 -53.16,-11.223 -17.13,0 -37.22,3.547 -53.76,11.817 -20.08,10.039 -35.44,29.531 -35.44,50.796 0,25.403 19.49,45.485 42.53,55.524 14.18,6.5 31.31,8.859 44.89,8.859 13,0 31.9,-1.769 46.67,-7.679 26.58,-11.219 44.3,-32.485 44.3,-55.524"
         inkscape:connector-curvature="0"
         id="path22"
         style="fill:#231f20;fill-opacity:1;fill-rule:evenodd;stroke:none" /><path
         d="m 1537.88,1513 c -71.98,0 -138.09,-24.73 -190.5,-66.19 -52.38,41.46 -118.51,66.19 -190.5,66.19 -71.97,0 -138.13,-24.75 -190.505,-66.19 -52.371,41.46 -118.512,66.19 -190.5,66.19 -71.965,0 -138.133,-24.75 -190.5,-66.19 -52.406,41.46 -118.52,66.19 -190.5,66.19 -169.711,0 -307.2383,-137.53 -307.2383,-307.24 0,-169.7 137.5273,-307.233 307.2383,-307.233 71.98,0 138.125,24.735 190.5,66.188 52.367,-41.438 118.535,-66.188 190.5,-66.188 71.988,0 138.129,24.727 190.5,66.188 52.375,-41.438 118.535,-66.188 190.505,-66.188 71.99,0 138.12,24.727 190.5,66.188 52.37,-41.453 118.52,-66.188 190.5,-66.188 169.71,0 307.24,137.533 307.24,307.233 0,169.71 -137.53,307.24 -307.24,307.24 z M 535.105,1014.91 c -39.152,-28.57 -88.058,-46.004 -140.23,-46.004 -130.918,0 -236.859,105.944 -236.859,236.854 0,130.92 105.941,236.86 236.859,236.86 52.172,0 101.047,-17.44 140.23,-46 -41.667,-52.44 -66.464,-118.67 -66.464,-190.86 0,-71.9 25.089,-138.51 66.464,-190.85 z m 50.27,50.13 c -29.16,39.38 -46.352,87.97 -46.352,140.72 0,52.82 17.145,101.32 46.352,140.73 29.207,-39.41 46.352,-87.91 46.352,-140.73 0,-52.75 -17.192,-101.34 -46.352,-140.72 z m 330.734,-50.13 c -39.3,-28.937 -87.851,-45.93 -140.398,-45.93 -52.527,0 -100.773,17.008 -140.066,45.93 41.375,52.34 66.46,118.95 66.46,190.85 0,72.19 -24.789,138.42 -66.46,190.86 39.293,28.92 87.539,45.93 140.066,45.93 52.547,0 101.098,-17 140.398,-45.93 -41.671,-52.44 -66.461,-118.67 -66.461,-190.86 0,-71.9 25.082,-138.51 66.461,-190.85 z m 50.266,50.13 c -29.156,39.38 -46.348,87.97 -46.348,140.72 0,52.82 17.145,101.32 46.348,140.73 29.211,-39.41 46.355,-87.91 46.355,-140.73 0,-52.75 -17.195,-101.34 -46.355,-140.72 z m 330.735,-50.13 c -39.3,-28.937 -87.85,-45.93 -140.4,-45.93 -52.53,0 -100.77,17.008 -140.07,45.93 41.38,52.34 66.47,118.95 66.47,190.85 0,72.19 -24.79,138.42 -66.47,190.86 39.3,28.92 87.54,45.93 140.07,45.93 52.55,0 101.1,-17 140.4,-45.93 -41.67,-52.44 -66.46,-118.67 -66.46,-190.86 0,-71.9 25.08,-138.51 66.46,-190.85 z m 50.27,50.13 c -29.15,39.38 -46.35,87.97 -46.35,140.72 0,52.82 17.14,101.32 46.35,140.73 29.21,-39.41 46.35,-87.91 46.35,-140.73 0,-52.75 -17.19,-101.34 -46.35,-140.72 z m 190.5,-96.134 c -52.17,0 -101.08,17.434 -140.23,46.004 41.37,52.34 66.46,118.95 66.46,190.85 0,72.19 -24.79,138.42 -66.46,190.86 39.19,28.56 88.06,46 140.23,46 130.92,0 236.86,-105.94 236.86,-236.86 0,-130.91 -105.94,-236.854 -236.86,-236.854"
         inkscape:connector-curvature="0"
         id="path24"
         style="fill:#231f20;fill-opacity:1;fill-rule:evenodd;stroke:none" /></g></g></svg>