<?xml version="1.0" encoding="UTF-8" standalone="no"?>
<!-- Created with Inkscape (http://www.inkscape.org/) -->

<svg
   xmlns:dc="http://purl.org/dc/elements/1.1/"
   xmlns:cc="http://creativecommons.org/ns#"
   xmlns:rdf="http://www.w3.org/1999/02/22-rdf-syntax-ns#"
   xmlns:svg="http://www.w3.org/2000/svg"
   xmlns="http://www.w3.org/2000/svg"
   xmlns:inkscape="http://www.inkscape.org/namespaces/inkscape"
   version="1.1"
   width="242.5"
   height="242.5"
   id="svg2"
   xml:space="preserve"><metadata
     id="metadata8"><rdf:RDF><cc:Work
         rdf:about=""><dc:format>image/svg+xml</dc:format><dc:type
           rdf:resource="http://purl.org/dc/dcmitype/StillImage" /></cc:Work></rdf:RDF></metadata><defs
     id="defs6" /><g
     transform="matrix(1.25,0,0,-1.25,0,242.5)"
     id="g10"><g
       transform="scale(0.1,0.1)"
       id="g12"><path
         d="m 2.59766,5.66797 1927.56004,0 0,1927.56003 -1927.56004,0 0,-1927.56003 z"
         inkscape:connector-curvature="0"
         id="path14"
         style="fill:#ffffff;fill-opacity:1;fill-rule:evenodd;stroke:none" /><path
         d="m 372.402,993.281 c 0,-8.554 0,-15.89 0,-23.222 0,-327.539 266.434,-595.196 593.977,-595.196 272.541,0 502.311,183.325 571.971,432.649 l -953.287,-11 229.765,177.215 -442.426,19.554 z m 22,135.659 c 69.664,251.77 299.434,435.09 571.977,435.09 327.541,0 593.971,-266.43 593.971,-593.971 0,-11 0,-19.555 0,-29.332 l -442.42,19.554 235.87,179.659 -959.398,-11 z m -98.996,-131.991 -207.7693,8.551 0,121 226.1053,2.44 c 72.106,293.32 337.317,512.09 652.637,512.09 370.321,0 670.971,-300.65 670.971,-670.971 0,-11 0,-20.778 -1.22,-31.778 l 208.99,-8.554 0,-119.774 -226.1,-2.441 C 1545.69,515.414 1281.7,297.863 966.379,297.863 c -371.539,0 -672.195,300.657 -672.195,672.196 0,8.554 0,17.109 1.222,26.89"
         inkscape:connector-curvature="0"
         id="path16"
         style="fill:#231f20;fill-opacity:1;fill-rule:evenodd;stroke:none" /></g></g></svg>