<svg xmlns:dc="http://purl.org/dc/elements/1.1/" xmlns:cc="http://creativecommons.org/ns#" xmlns:rdf="http://www.w3.org/1999/02/22-rdf-syntax-ns#"  xmlns="http://www.w3.org/2000/svg" xmlns:inkscape="http://www.inkscape.org/namespaces/inkscape" version="1.1" width="100%" height="100%" id="svg2" xml:space="preserve" xmlns:xlink="http://www.w3.org/1999/xlink" viewBox="0.32421875 0.84765625 240.9453125 240.9453125"><rect id="svgEditorBackground" x="0.324219" y="0.847656" width="240.945" height="240.945" style="fill: none; stroke: none;"/><metadata id="metadata8"><rdf:RDF><cc:Work rdf:about=""><dc:format>image/svg+xml</dc:format><dc:type rdf:resource="http://purl.org/dc/dcmitype/StillImage"/></cc:Work></rdf:RDF></metadata><defs id="defs6"/><g transform="matrix(1.25,0,0,-1.25,0,242.5)" id="g10"><g transform="scale(0.1,0.1)" id="g12"><path d="M-48.1471,-13.8492 l1927.56,0 l-2.60474,1911.93 l-1927.56,0 l0,-1927.56 z" inkscape:connector-curvature="0" id="path14" style="fill:#ffffff;fill-opacity:1;fill-rule:evenodd;stroke:none" transform="matrix(0.667312, 0, 0, 0.667312, 391.192, 475.11)"/><path d="M966.64501953125,537.426025390625c340.925048828125,0,617.175048828125,276.2650146484375,617.175048828125,617.174072265625c0,340.9200439453125,-276.25,617.7099609375,-617.1749877929688,617.7099609375c-340.91802978515625,0,-617.7109985351562,-276.7900390625,-617.7109985351562,-617.7099609375c0,-340.90899658203125,276.79296875,-617.1740112304688,617.7109985351562,-617.1740112304688l0,0" inkscape:connector-curvature="0" id="path46" style="fill:#070b0a;fill-opacity:1;fill-rule:evenodd;stroke:none"/><path d="M966.64501953125,552.9219970703125c332.364990234375,0,601.68505859375,269.31201171875,601.68505859375,601.677978515625c0,332.3699951171875,-269.320068359375,602.219970703125,-601.6849975585938,602.219970703125c-332.364013671875,0,-601.6799926757812,-269.8499755859375,-601.6799926757812,-602.219970703125c0,-332.365966796875,269.3160400390625,-601.677978515625,601.6799926757812,-601.677978515625l0,0" inkscape:connector-curvature="0" id="path48" style="fill:#ffffff;fill-opacity:1;fill-rule:evenodd;stroke:none"/><path d="M966.64501953125,571.0900268554688c322.2149658203125,0,584.044921875,261.2969970703125,584.044921875,583.5100708007812c0,322.75,-261.8299560546875,584.050048828125,-584.0449829101562,584.050048828125c-322.21502685546875,0,-584.0469970703125,-261.300048828125,-584.0469970703125,-584.050048828125c0,-322.2130126953125,261.83197021484375,-583.510009765625,584.0469970703125,-583.510009765625l0,0" inkscape:connector-curvature="0" id="path50" style="fill:#070b0a;fill-opacity:1;fill-rule:evenodd;stroke:none"/><path d="M966.64501953125,790.176025390625c201.4549560546875,0,364.425048828125,163.511962890625,364.425048828125,364.424072265625c0,201.449951171875,-162.969970703125,364.969970703125,-364.42498779296875,364.969970703125c-201.45001220703125,0,-364.96099853515625,-163.52001953125,-364.96099853515625,-364.969970703125c0,-200.9119873046875,163.510986328125,-364.42401123046875,364.96099853515625,-364.42401123046875l0,0" inkscape:connector-curvature="0" id="path52" style="fill:#ffffff;fill-opacity:1;fill-rule:evenodd;stroke:none"/><path d="m 1033.97,1679.88 c 15.5,-21.92 17.64,-52.37 13.36,-78.56 -4.81,-24.04 -24.04,-39 -45.95,-45.95 -34.2,-4.28 -75.876,-12.83 -106.337,19.77 -17.102,24.04 -17.102,54.5 -10.691,84.96 8.55,32.6 45.957,41.15 76.418,43.29 26.718,0 53.97,-4.28 73.2,-23.51 l 0,0" inkscape:connector-curvature="0" id="path54" style="fill:#ffffff;fill-opacity:1;fill-rule:evenodd;stroke:none"/><path d="m 994.965,1653.16 c 2.137,-19.77 8.555,-50.23 -6.414,-67.34 -13.356,-9.61 -32.059,-13.35 -45.414,-4.27 -17.633,17.1 -14.965,43.29 -10.688,65.19 2.133,12.83 10.688,26.19 24.043,28.32 14.426,2.14 34.199,-4.27 38.473,-21.9 l 0,0" inkscape:connector-curvature="0" id="path56" style="fill:#070b0a;fill-opacity:1;fill-rule:evenodd;stroke:none"/><path d="m 1293.67,1579.95 c 9.08,-26.18 0,-50.24 -12.83,-71.6 -10.68,-19.78 -40.61,-35.8 -56.64,-33.14 -35.27,6.42 -65.19,28.33 -99.92,49.7 l 0,0 68.93,124.51 0,0 c 35.27,-19.24 78.55,-30.46 100.46,-69.47 l 0,0" inkscape:connector-curvature="0" id="path58" style="fill:#ffffff;fill-opacity:1;fill-rule:evenodd;stroke:none"/><path d="m 1252.53,1573.54 c 2.13,-19.77 -6.42,-41.68 -24.05,-54.51 -17.1,-13.36 -52.37,12.83 -52.37,12.83 l 0,0 39.01,72.14 0,0 c 15.5,-9.09 33.13,-13.37 37.41,-30.46 l 0,0" inkscape:connector-curvature="0" id="path60" style="fill:#070b0a;fill-opacity:1;fill-rule:evenodd;stroke:none"/><path d="m 545.043,1455.98 c -12.824,-14.96 -28.32,-28.32 -30.461,-47.56 0,-6.41 5.879,-14.42 13.359,-13.35 21.379,17.63 43.286,54.5 73.743,45.95 15.496,0 30.457,-15.5 34.734,-28.32 9.082,-39.01 -19.238,-72.14 -45.422,-97.79 l 0,0 -24.047,14.96 0,0 c 17.637,15.5 43.285,39.01 32.594,63.06 -33.66,16.56 -39.008,-45.43 -73.738,-45.43 -15.496,0 -36.34,10.69 -41.68,28.33 0,0 -2.137,10.68 -2.137,17.63 -0.531,12.29 4.809,25.65 10.688,36.88 6.41,10.68 13.359,19.23 13.359,19.23 l 0,0 19.77,21.91 19.238,-15.5 0,0" inkscape:connector-curvature="0" id="path62" style="fill:#ffffff;fill-opacity:1;fill-rule:evenodd;stroke:none"/><path d="m 481.988,1419.11 c -4.812,-0.54 -13.359,-1.6 -18.703,-2.14 1.07,3.74 5.879,15.49 5.879,15.49 l 0,0 17.098,2.68 -8.016,13.9 0,0 c 3.742,5.34 6.414,11.21 10.156,16.56 l 0,0 9.618,-17.64 -16.032,-28.85 0,0" inkscape:connector-curvature="0" id="path64" style="fill:#ffffff;fill-opacity:1;fill-rule:evenodd;stroke:none"/><path d="m 1458.79,1391.32 -106.88,-119.16 -20.3,43.29 25.65,24.58 -28.86,49.69 -32.59,-7.48 -24.59,34.73 156.57,26.19 31,-51.84 0,0" inkscape:connector-curvature="0" id="path66" style="fill:#ffffff;fill-opacity:1;fill-rule:evenodd;stroke:none"/><path d="m 1374.36,1361.93 -19.24,34.74 65.72,12.82 -46.48,-47.56 0,0" inkscape:connector-curvature="0" id="path68" style="fill:#070b0a;fill-opacity:1;fill-rule:evenodd;stroke:none"/><path d="m 744.887,676.891 -32.594,20.843 6.949,22.977 -29.39,21.906 -21.375,-14.426 0,0 c -8.551,7.481 -16.567,14.965 -24.579,22.446 l 0,0 84.961,63.054 43.817,-26.187 -27.789,-110.613 0,0" inkscape:connector-curvature="0" id="path70" style="fill:#ffffff;fill-opacity:1;fill-rule:evenodd;stroke:none"/><path d="m 1262.14,765.594 c 8.02,-18.168 2.14,-37.403 -11.22,-48.09 -17.1,-17.633 -36.87,-28.32 -60.91,-26.184 -21.38,2.141 -39.01,24.047 -45.42,41.149 -4.28,17.629 -4.28,36.336 8.54,48.09 17.64,15.5 34.74,25.652 58.78,28.32 21.91,0 41.68,-24.047 50.23,-43.285 l 0,0" inkscape:connector-curvature="0" id="path72" style="fill:#ffffff;fill-opacity:1;fill-rule:evenodd;stroke:none"/><path d="m 728.32,741.551 -20.3,14.426 28.855,24.05 -8.555,-38.476 0,0" inkscape:connector-curvature="0" id="path74" style="fill:#070b0a;fill-opacity:1;fill-rule:evenodd;stroke:none"/><path d="m 1229.55,749.563 c 6.95,-15.497 -0.54,-29.918 -17.1,-32.594 -22.44,-4.274 -29.93,20.308 -37.41,33.129 -6.41,12.832 2.14,30.461 17.1,32.593 21.91,4.278 28.86,-20.3 37.41,-33.128 l 0,0" inkscape:connector-curvature="0" id="path76" style="fill:#070b0a;fill-opacity:1;fill-rule:evenodd;stroke:none"/><path d="m 859.238,676.359 c -0.531,-11.222 20.305,-18.703 27.789,-6.945 2.672,8.012 9.618,47.555 13.895,71.606 11.219,-2.676 24.047,-5.348 32.59,-7.489 -2.668,-18.164 -5.34,-68.926 -27.246,-88.168 -14.965,-11.218 -39.008,-4.804 -54.504,0 -34.735,12.293 -28.856,41.145 -28.856,41.145 l 0,0 16.028,67.328 33.129,-6.941 -12.825,-70.536 0,0" inkscape:connector-curvature="0" id="path78" style="fill:#ffffff;fill-opacity:1;fill-rule:evenodd;stroke:none"/><path d="m 1058.55,722.309 15.5,-77.477 -34.2,-6.949 -15.49,78.012 -26.719,-6.403 -5.348,23.512 88.707,19.769 6.41,-23.511 -28.86,-6.953 0,0" inkscape:connector-curvature="0" id="path80" style="fill:#ffffff;fill-opacity:1;fill-rule:evenodd;stroke:none"/><path d="M1030.22998046875,1461.3199462890625c92.97998046875,-99.9200439453125,144.280029296875,-235.1099853515625,104.199951171875,-378.3199462890625c0,0,-11.75,-34.199951171875,-14.9599609375,-48.0899658203125c-2.6700439453125,-13.8900146484375,-2.1300048828125,-24.58001708984375,-2.1300048828125,-24.58001708984375c4.260009765625,-9.09002685546875,18.1600341796875,-11.7559814453125,27.25,-9.6199951171875c9.0699462890625,9.08001708984375,-6.949951171875,20.84002685546875,2.1300048828125,32.05999755859375c44.8900146484375,4.280029296875,82.2900390625,-27.25,115.9599609375,-56.6409912109375c-29.3900146484375,-35.80499267578125,-73.75,-69.9959716796875,-119.1600341796875,-58.7769775390625c-6.4100341796875,9.08197021484375,14.4300537109375,20.83599853515625,0.530029296875,29.92901611328125l0,0l-330.760986328125,0.52801513671875l0,0c-9.6209716796875,-0.52801513671875,-27.2540283203125,-28.85198974609375,-37.406005859375,-31.52801513671875c-14.426025390625,-3.2030029296875,-38.4730224609375,-2.66802978515625,-44.88702392578125,1.07098388671875c-13.89398193359375,13.89398193359375,-17.10101318359375,36.33599853515625,-26.1829833984375,52.3709716796875c-9.08599853515625,19.7650146484375,-50.23101806640625,40.0670166015625,-43.2860107421875,55.0269775390625c3.20697021484375,5.3499755859375,82.29302978515625,17.1099853515625,133.05902099609375,-1.05999755859375c19.2340087890625,-8.54998779296875,39.00799560546875,-26.1820068359375,59.31201171875,-20.84002685546875c1.06298828125,0.530029296875,2.6719970703125,1.07000732421875,3.739013671875,3.739990234375c5.343017578125,61.97998046875,-39.54296875,130.3800048828125,-105.2659912109375,161.9100341796875c-19.23797607421875,9.0799560546875,-33.1290283203125,11.219970703125,-51.83203125,9.6099853515625c-19.76898193359375,-1.06005859375,-40.61297607421875,-3.199951171875,-53.968994140625,6.4200439453125c-11.22198486328125,8.550048828125,-9.08599853515625,37.4000244140625,-0.53497314453125,65.719970703125c4.27398681640625,12.8299560546875,10.15301513671875,26.719970703125,16.031005859375,37.93994140625c26.718994140625,58.780029296875,111.14501953125,-3.739990234375,122.364013671875,-9.6199951171875c14.4329833984375,-7.47998046875,29.3900146484375,-23.510009765625,33.66400146484375,-2.6700439453125c-1.0670166015625,13.3599853515625,-27.25,26.18994140625,-44.35198974609375,35.27001953125c-50.22601318359375,26.719970703125,-82.28900146484375,20.31005859375,-66.25396728515625,50.760009765625c4.80499267578125,9.0899658203125,20.83203125,29.9300537109375,42.7459716796875,48.6300048828125c22.4420166015625,19.780029296875,50.75799560546875,38.47998046875,71.60198974609375,41.1400146484375c37.4019775390625,3.75,77.47998046875,-49.1600341796875,77.47998046875,-49.1600341796875l0,0l47.55499267578125,-52.9000244140625l0,0c9.09002685546875,-5.3399658203125,14.42999267578125,0.5400390625,15.5,4.27001953125c2.66802978515625,8.02001953125,-4.8079833984375,16.5799560546875,-4.8079833984375,16.5799560546875c0,0,-21.9110107421875,26.7099609375,-33.66497802734375,38.469970703125c-11.218017578125,11.75,-44.35498046875,43.280029296875,-44.35498046875,43.280029296875c-12.823974609375,22.43994140625,11.2230224609375,29.3900146484375,24.58197021484375,31.530029296875c43.28497314453125,4.27001953125,90.8399658203125,16.030029296875,126.10498046875,-22.449951171875l0,0" inkscape:connector-curvature="0" id="path82" style="fill:#00a650;fill-opacity:1;fill-rule:evenodd;stroke:none"/><path d="m 1031.3,1027.96 c 27.79,0 50.23,22.44 50.23,50.23 0,27.79 -22.44,50.76 -50.23,50.76 -27.78,0 -50.226,-22.97 -50.226,-50.76 0,-27.79 22.446,-50.23 50.226,-50.23 l 0,0" inkscape:connector-curvature="0" id="path84" style="fill:#ffffff;fill-opacity:1;fill-rule:evenodd;stroke:none"/><path d="m 743.285,1576.75 c 25.649,-16.04 57.707,-26.72 83.36,-44.89 l 0,0 -43.817,-20.84 -76.945,40.07 1.07,81.76 39.539,20.84 0,0 c 4.274,-21.91 -2.672,-52.9 -3.207,-76.94 l 0,0" inkscape:connector-curvature="0" id="path86" style="fill:#ffffff;fill-opacity:1;fill-rule:evenodd;stroke:none"/><path d="m 712.293,1464.53 -79.617,119.16 33.129,23.51 80.152,-117.56 -33.664,-25.11 0,0" inkscape:connector-curvature="0" id="path88" style="fill:#ffffff;fill-opacity:1;fill-rule:evenodd;stroke:none"/></g></g></svg>