<?xml version="1.0" encoding="UTF-8" standalone="no"?>
<!-- Created with Inkscape (http://www.inkscape.org/) -->

<svg
   xmlns:dc="http://purl.org/dc/elements/1.1/"
   xmlns:cc="http://creativecommons.org/ns#"
   xmlns:rdf="http://www.w3.org/1999/02/22-rdf-syntax-ns#"
   xmlns:svg="http://www.w3.org/2000/svg"
   xmlns="http://www.w3.org/2000/svg"
   xmlns:inkscape="http://www.inkscape.org/namespaces/inkscape"
   version="1.1"
   width="106.3"
   height="127.5625"
   id="svg2"
   xml:space="preserve"><metadata
     id="metadata8"><rdf:RDF><cc:Work
         rdf:about=""><dc:format>image/svg+xml</dc:format><dc:type
           rdf:resource="http://purl.org/dc/dcmitype/StillImage" /></cc:Work></rdf:RDF></metadata><defs
     id="defs6" /><g
     transform="matrix(1.25,0,0,-1.25,0,127.5625)"
     id="g10"><g
       transform="scale(0.1,0.1)"
       id="g12"><path
         d="m 680.313,425.156 c 0,-140.898 -114.219,-255.117 -255.122,-255.117 -140.89,0 -255.117,114.219 -255.117,255.117 0,140.895 114.227,255.117 255.117,255.117 140.903,0 255.122,-114.222 255.122,-255.117"
         inkscape:connector-curvature="0"
         id="path14"
         style="fill:#231f20;fill-opacity:1;fill-rule:nonzero;stroke:none" /><path
         d="m 673.906,425.156 c 0,-137.351 -111.347,-248.699 -248.715,-248.699 -137.359,0 -248.711,111.348 -248.711,248.699 0,137.356 111.352,248.703 248.711,248.703 137.368,0 248.715,-111.347 248.715,-248.703"
         inkscape:connector-curvature="0"
         id="path16"
         style="fill:#ffffff;fill-opacity:1;fill-rule:nonzero;stroke:none" /><path
         d="M 656.387,425.156 C 656.387,297.473 552.871,193.977 425.191,193.977 297.512,193.977 194,297.473 194,425.156 c 0,127.688 103.512,231.188 231.191,231.188 127.68,0 231.196,-103.5 231.196,-231.188"
         inkscape:connector-curvature="0"
         id="path18"
         style="fill:#231f20;fill-opacity:1;fill-rule:nonzero;stroke:none" /><path
         d="m 635.918,425.156 c 0,-116.386 -94.336,-210.73 -210.727,-210.73 -116.39,0 -210.722,94.344 -210.722,210.73 0,116.379 94.332,210.731 210.722,210.731 116.391,0 210.727,-94.352 210.727,-210.731"
         inkscape:connector-curvature="0"
         id="path20"
         style="fill:#ffffff;fill-opacity:1;fill-rule:nonzero;stroke:none" /><path
         d="m 585.43,324.316 c -15.742,14.778 -35.586,24.661 -57.207,28.106 -3.086,0.48 -5.879,-1.902 -5.879,-5.02 0,-2.547 0,-5.3 0,-7.851 0,-2.332 -1.778,-4.981 -4.121,-4.981 -1.7,0 -3.399,-0.039 -5.098,0 -6.035,0.098 -7.129,7.5 -5.918,11.868 12.852,46.082 15.996,74.042 15.84,94.394 -0.156,21.641 -0.703,43.191 -10.449,71.727 -9.395,27.449 -17.969,54.328 -63.34,95.41 -3.086,2.777 -6.192,4.129 -10.348,4.426 -4.461,0.312 -8.109,0.468 -12.644,0.468 -18.84,0 -37.02,-2.769 -54.192,-7.922 -6.433,-1.941 -5.469,-6.414 -1.929,-9.457 17.125,-14.66 40.351,-36.675 56.375,-64.183 -10.149,-0.981 -17.899,4.664 -24.415,10.898 -21.417,20.391 -43.707,34.91 -61.417,44.864 -3.086,1.726 -6.122,2.449 -9.18,0.691 -19.52,-11.352 -32.668,-22.024 -48.168,-40 -2.633,-3.059 -0.93,-5.438 1.656,-6.809 16.938,-8.98 43.473,-26.027 67.797,-48.16 -4.961,-4.172 -12.82,-2.805 -24.207,3.172 -21.891,11.504 -42.938,18.121 -59,22.254 -3.438,0.887 -7.125,-0.078 -8.898,-3.156 -10.282,-17.867 -17.375,-39.242 -20.731,-60.922 -0.644,-4.16 2.191,-7.844 6.344,-8.567 37.429,-6.55 104.164,-24.148 115.246,-101.023 0.957,-6.73 -5.164,-12.648 -13.227,-8.859 -11.254,5.265 -22.496,10.527 -33.734,15.8 -1.18,0.547 -2.52,1.016 -3.809,1.016 -18.113,0 -34.933,0 -53.035,0 -7.531,0 -10.633,-7.207 -5.73,-12.82 12.75,-14.688 24.437,-30.528 34.437,-47.325 0.887,-1.484 1.903,-2.062 3.633,-2.062 7.711,0 15.441,0 23.148,0 1.575,0 2.926,0.371 4.282,1.172 7.277,4.269 14.554,8.527 21.843,12.793 1.352,0.801 2.7,0.781 4.278,0.781 55.82,0 115.703,0 174.472,0 2.344,0 4.239,-1.504 4.239,-3.848 0,-2.859 0,-5.722 0,-8.593 0,-3.114 2.793,-5.489 5.879,-5.008 21.621,3.445 41.465,13.328 57.207,28.094 2.5,2.336 2.5,6.308 0,8.632"
         inkscape:connector-curvature="0"
         id="path22"
         style="fill:#231f20;fill-opacity:1;fill-rule:nonzero;stroke:none" /><path
         d="m 455.449,349.445 c -17.183,0 -31.101,13.914 -31.101,31.075 0,17.175 13.918,31.093 31.101,31.093 17.149,0 31.074,-13.918 31.074,-31.093 0,-17.161 -13.925,-31.075 -31.074,-31.075 z M 569.707,320.02 c -11.797,9.628 -24.238,15.859 -39.355,18.984 -1.368,0.285 -2.032,-0.242 -2.032,-1.649 0,-0.253 0,-0.488 0,-0.753 0,-3.711 -3.711,-8.036 -7.441,-8.036 -3.262,0 -6.563,0 -9.824,0 -8.282,0 -15.684,6.825 -12.617,17.782 35.468,126.574 -4.161,204.84 -54.2,248.648 -13.593,11.875 -14.812,12.535 -28.363,12.016 -10.68,-0.403 -23.195,-1.711 -33.781,-4.285 -2.074,-0.508 -3.813,-2.153 -1.063,-4.465 25.684,-21.641 60.024,-58.957 76.449,-117.032 0.567,-2.019 -0.625,-1.875 -2.167,-1.96 -14.708,-0.891 -19.665,8.113 -24.262,13.847 -33.34,41.5 -70.735,66.75 -98.711,83.332 -2.793,1.668 -3.238,1.637 -5.363,0.406 -11.25,-6.496 -23.872,-16.867 -32.766,-26.3 -1.856,-2 -1.391,-2.938 0.656,-4.032 25.313,-13.562 63.817,-40.293 99.586,-85.613 2.223,-2.805 2.367,-4.094 1.117,-4.836 -6.879,-4.101 -18.367,-4.043 -30.953,3.801 -34.105,21.27 -68.742,36.336 -95.847,44.145 -2.887,0.839 -3.395,0.675 -4.571,-1.801 -6.609,-13.899 -13.812,-31.953 -16.406,-47.61 -0.332,-2.039 -0.508,-2.195 1.387,-2.586 74.59,-15.148 115.511,-56.066 120.175,-110.753 0.817,-9.493 -9.921,-18.633 -20.593,-15.254 -11.598,3.683 -22.86,7.824 -34.465,11.496 -1.25,0.41 -2.504,0.586 -3.824,0.586 -16.035,0.007 -32.082,0.019 -48.129,0.019 -2.145,0 -3.395,-1.34 -1.266,-4.035 12.106,-15.312 19.152,-23.992 27.692,-38.32 0.875,-1.492 1.878,-2.059 3.632,-2.059 5.887,0 11.797,0.008 17.711,0.008 2.344,0 4.352,0.539 6.387,1.738 6.422,3.762 12.809,7.266 19.227,11.035 2.043,1.204 3.785,1.926 6.152,1.926 58.238,0.02 120.66,0 178.883,0.008 3.711,0 7.558,-4.344 7.558,-8.086 0,-0.418 0,-0.848 0,-1.277 0,-1.407 0.664,-1.934 2.032,-1.66 15.117,3.132 27.558,10.39 39.355,20.019 1.074,0.879 1.074,1.719 0,2.606"
         inkscape:connector-curvature="0"
         id="path24"
         style="fill:#231f20;fill-opacity:1;fill-rule:nonzero;stroke:none" /><path
         d="m 488.223,378.996 c 0,-19.375 -15.703,-35.07 -35.078,-35.07 -19.36,0 -35.063,15.695 -35.063,35.07 0,19.375 15.703,35.078 35.063,35.078 19.375,0 35.078,-15.703 35.078,-35.078"
         inkscape:connector-curvature="0"
         id="path26"
         style="fill:#231f20;fill-opacity:1;fill-rule:nonzero;stroke:none" /><path
         d="m 482.754,379.895 c 0,-12.969 -10.527,-23.508 -23.516,-23.508 -12.988,0 -23.5,10.539 -23.5,23.508 0,12.996 10.512,23.523 23.5,23.523 12.989,0 23.516,-10.527 23.516,-23.523"
         inkscape:connector-curvature="0"
         id="path28"
         style="fill:#ffffff;fill-opacity:1;fill-rule:nonzero;stroke:none" /><path
         d="m 169.398,870.07 10.754,-12.265 c 0.59,-0.707 1.188,-0.953 2.129,-0.953 l 22.559,0 c 0.949,0 1.539,0.246 2.125,0.953 l 10.754,12.265 c 0.937,1.078 0.586,2.133 -0.949,2.133 l -15.227,0 c -0.957,0 -1.555,-0.351 -2.145,-1.055 l -4.597,-6.625 -2.492,0 -4.598,6.625 c -0.594,0.704 -1.18,1.055 -2.242,1.055 l -15.117,0 c -1.547,0 -1.879,-1.055 -0.954,-2.133 m 199.075,-61.64 0,-1.188 c 0,-41.211 6.754,-43.707 56.234,-43.707 49.492,0 56.231,2.496 56.231,43.832 l 0,1.063 c 0,41.211 -6.739,43.695 -56.231,43.695 -49.48,0 -56.234,-2.484 -56.234,-43.695 m -5.012,-40.992 -47.012,45.953 44.164,34.843 c 1.317,0.938 0.828,2.125 -0.828,2.125 l -28.816,0 c -0.824,0 -1.418,-0.242 -2.125,-0.828 l -45.117,-36.035 0,35.09 c 0,1.172 -0.586,1.773 -1.77,1.773 l -21.969,0 c -1.183,0 -1.781,-0.601 -1.781,-1.773 l 0,-81.5 c 0,-1.18 0.598,-1.773 1.781,-1.773 l 21.969,0 c 1.184,0 1.77,0.593 1.77,1.773 l 0,20.547 13.347,10.523 32.36,-31.898 c 0.711,-0.711 1.296,-0.945 2.242,-0.945 l 30.945,0 c 1.539,0 2.02,1.058 0.84,2.125 m 182.457,82.921 -47.129,0 c -1.172,0 -1.777,-0.601 -1.777,-1.773 l 0,-81.5 c 0,-1.18 0.605,-1.773 1.777,-1.773 l 47.129,0 c 50.43,0 57.051,2.488 57.051,42.175 l 0,0.707 c 0,39.688 -6.621,42.164 -57.051,42.164 m 182.559,-82.921 -40.762,81.617 c -0.352,0.937 -1.074,1.304 -2.012,1.304 l -36.133,0 c -0.957,0 -1.66,-0.367 -2.011,-1.304 l -40.762,-81.617 c -0.586,-1.305 -0.098,-2.125 1.308,-2.125 l 23.497,0 c 0.937,0 1.66,0.351 2.011,1.304 l 6.153,12.047 55.742,0 6.133,-12.047 c 0.371,-0.953 1.074,-1.304 2.031,-1.304 l 23.496,0 c 1.426,0 1.895,0.82 1.309,2.125 m -274.961,40.992 0,-1.188 c 0,-23.863 -0.938,-24.215 -28.809,-24.215 -27.875,0 -28.824,0.352 -28.824,24.215 l 0,1.188 c 0,23.851 0.949,24.207 28.824,24.207 27.871,0 28.809,-0.356 28.809,-24.207 m 122.636,0 0,-1.188 c 0,-21.851 -1.777,-22.562 -30.117,-22.562 l -23.379,0 0,46.312 23.379,0 c 28.34,0 30.117,-0.719 30.117,-22.562 m 110.371,-11.938 -37.793,0 17.364,34.383 3.086,0 17.343,-34.383 z M 141.414,765.188 c 12.527,-0.579 32.945,-1.165 44.746,-1.165 51.512,0 57.653,0.11 57.653,28.102 0,22.086 -6.485,23.859 -33.774,24.68 l -31.656,0.945 c -14.52,0.484 -14.766,2.008 -14.766,8.508 0,6.73 1.774,6.73 36.617,6.73 6.602,0 27.633,-0.351 38.746,-0.59 1.165,0 1.774,0.59 1.774,1.774 l 0,14.414 c 0,1.172 -0.609,1.773 -1.668,1.879 -10.984,0.605 -28.93,1.191 -41.805,1.191 -50.551,0 -58.691,-0.945 -58.691,-27.047 0,-22.328 4.949,-25.281 37.308,-26.347 l 29.051,-0.942 c 13.59,-0.468 13.836,-2.125 13.836,-7.203 0,-6.976 -0.597,-7.328 -32.73,-7.328 -15,0 -30.469,0.59 -44.524,1.07 -1.179,0.118 -1.769,-0.48 -1.769,-1.656 l 0,-15.117 c 0,-1.18 0.59,-1.773 1.652,-1.898"
         inkscape:connector-curvature="0"
         id="path30"
         style="fill:#231f20;fill-opacity:1;fill-rule:nonzero;stroke:none" /></g></g></svg>