<?xml version="1.0" encoding="UTF-8" standalone="no"?>
<!-- Created with Inkscape (http://www.inkscape.org/) -->

<svg
   xmlns:dc="http://purl.org/dc/elements/1.1/"
   xmlns:cc="http://creativecommons.org/ns#"
   xmlns:rdf="http://www.w3.org/1999/02/22-rdf-syntax-ns#"
   xmlns:svg="http://www.w3.org/2000/svg"
   xmlns="http://www.w3.org/2000/svg"
   xmlns:inkscape="http://www.inkscape.org/namespaces/inkscape"
   version="1.1"
   width="240.925"
   height="240.925"
   id="svg2"
   xml:space="preserve"><metadata
     id="metadata8"><rdf:RDF><cc:Work
         rdf:about=""><dc:format>image/svg+xml</dc:format><dc:type
           rdf:resource="http://purl.org/dc/dcmitype/StillImage" /></cc:Work></rdf:RDF></metadata><defs
     id="defs6" /><g
     transform="matrix(1.25,0,0,-1.25,0,240.925)"
     id="g10"><g
       transform="scale(0.1,0.1)"
       id="g12"><path
         d="m 0,0 1927.44,0 0,1927.44 L 0,1927.44 0,0 z"
         inkscape:connector-curvature="0"
         id="path14"
         style="fill:#ffffff;fill-opacity:1;fill-rule:evenodd;stroke:none" /><path
         d="m 963.359,1898.79 c -516.625,0 -935.4332,-418.82 -935.4332,-935.431 0,-516.625 418.8082,-935.4332 935.4332,-935.4332 516.611,0 935.431,418.8082 935.431,935.4332 0,516.611 -418.82,935.431 -935.431,935.431 l 0,0 z m 0,-1786.985 c -470.308,0 -851.554,381.25 -851.554,851.554 0,470.291 381.246,851.561 851.554,851.561 470.291,0 851.561,-381.27 851.561,-851.561 0,-470.304 -381.27,-851.554 -851.561,-851.554 l 0,0"
         inkscape:connector-curvature="0"
         id="path16"
         style="fill:#231f20;fill-opacity:1;fill-rule:evenodd;stroke:none" /><path
         d="m 776.918,1599.59 c 59.145,17.3 121.703,26.56 186.441,26.56 64.641,0 127.151,-9.25 186.231,-26.51 l 0,0 -186.231,-412.8 -186.441,412.75 0,0"
         inkscape:connector-curvature="0"
         id="path18"
         style="fill:#231f20;fill-opacity:1;fill-rule:evenodd;stroke:none" /><path
         d="m 1319.13,1522.68 c 69.86,-44.54 130.8,-101.78 179.58,-168.47 l 0,0 -305.67,-676.401 -117.94,262.257 -223.479,0 -117.945,-262.257 -305.215,677.031 0,0 c 48.699,66.43 109.469,123.44 179.094,167.82 l 0,0 244.066,-541.457 224.239,0 243.27,541.477 0,0"
         inkscape:connector-curvature="0"
         id="path20"
         style="fill:#231f20;fill-opacity:1;fill-rule:evenodd;stroke:none" /><path
         d="m 322.961,1134.91 c -14.613,-54.73 -22.41,-112.24 -22.41,-171.551 0,-259.742 149.394,-484.578 366.945,-593.285 l 0,0 -344.535,764.836 0,0"
         inkscape:connector-curvature="0"
         id="path22"
         style="fill:#231f20;fill-opacity:1;fill-rule:evenodd;stroke:none" /><path
         d="m 779.996,326.242 c 58.219,-16.734 119.75,-25.691 183.363,-25.691 63.531,0 124.981,8.937 183.151,25.625 l 0,0 -183.151,406.726 -183.363,-406.66 0,0"
         inkscape:connector-curvature="0"
         id="path24"
         style="fill:#231f20;fill-opacity:1;fill-rule:evenodd;stroke:none" /><path
         d="m 1259.21,370.074 c 217.55,108.707 366.94,333.543 366.94,593.285 0,58.801 -7.64,115.811 -22.01,170.091 l 0,0 -344.93,-763.376 0,0"
         inkscape:connector-curvature="0"
         id="path26"
         style="fill:#231f20;fill-opacity:1;fill-rule:evenodd;stroke:none" /></g></g></svg>